<svg xmlns="http://www.w3.org/2000/svg" viewBox="0 0 400 200" width="400" height="200">
  <rect x="10" y="10" width="120" height="50" rx="8" fill="none" stroke-width="2"/>
  <text x="70" y="42" text-anchor="middle" font-family="sans-serif" font-size="14">Markdown</text>

  <line x1="130" y1="35" x2="170" y2="35" stroke-width="2"/>
  <polygon points="170,30 180,35 170,40" fill="currentColor"/>

  <rect x="180" y="10" width="120" height="50" rx="8" fill="none" stroke-width="2"/>
  <text x="240" y="42" text-anchor="middle" font-family="sans-serif" font-size="14">Parser</text>

  <line x1="240" y1="60" x2="240" y2="90" stroke-width="2"/>
  <polygon points="235,90 240,100 245,90" fill="currentColor"/>

  <rect x="50" y="100" width="100" height="40" rx="6" fill="none" stroke-width="2"/>
  <text x="100" y="125" text-anchor="middle" font-family="sans-serif" font-size="12">Diagrams</text>

  <rect x="160" y="100" width="100" height="40" rx="6" fill="none" stroke-width="2"/>
  <text x="210" y="125" text-anchor="middle" font-family="sans-serif" font-size="12">HTML</text>

  <rect x="270" y="100" width="100" height="40" rx="6" fill="none" stroke-width="2"/>
  <text x="320" y="125" text-anchor="middle" font-family="sans-serif" font-size="12">Syntax HL</text>

  <line x1="240" y1="100" x2="100" y2="100" stroke-width="1.5" stroke-dasharray="4"/>
  <line x1="240" y1="100" x2="320" y2="100" stroke-width="1.5" stroke-dasharray="4"/>

  <rect x="120" y="160" width="180" height="35" rx="8" fill="none" stroke-width="2"/>
  <text x="210" y="183" text-anchor="middle" font-family="sans-serif" font-size="14" font-weight="bold">WebView</text>

  <line x1="100" y1="140" x2="180" y2="160" stroke-width="1.5"/>
  <line x1="210" y1="140" x2="210" y2="160" stroke-width="1.5"/>
  <line x1="320" y1="140" x2="240" y2="160" stroke-width="1.5"/>
</svg>
